<svg id="Layer_1" data-name="Layer 1" xmlns="http://www.w3.org/2000/svg" viewBox="0 0 1080 1080"><defs><style>.cls-1{fill:#ddd9d9;}</style></defs><path class="cls-1" d="M674.71,564.85h0V561.4C674.75,562.55,674.73,563.71,674.71,564.85Z"/><path class="cls-1" d="M704.24,314.88l-29.49,22.65-73.94,56.85a99.76,99.76,0,0,1-121.62,0l-73.94-56.85-29.49-22.65c-18.55-14.24-45.37-1-45.37,22.36v172.1h74.86V432.15l73.66,56.3h0a99.78,99.78,0,0,0,122.18,0h0l73.66-56.3v132.7h74.82c0-1.15,0-2.3,0-3.45V337.24C749.61,313.86,722.79,300.64,704.24,314.88Z"/><path class="cls-1" d="M674.75,587.76h0c-1.85,72.67-61.6,131.29-134.71,131.29-74.26,0-134.75-60.49-134.75-134.75v-52H330.39v52c0,115.59,94,209.61,209.61,209.61A209.94,209.94,0,0,0,749.57,587.76Z"/></svg>